<svg xmlns="http://www.w3.org/2000/svg" width="58.668" height="49.868" viewBox="0 0 58.668 49.868">
  <g id="client" transform="translate(0 -0.5)">
    <path id="Path_2" data-name="Path 2" d="M49.868,10.278H36.179V9.3a8.81,8.81,0,0,0-8.8-8.8H8.8A8.81,8.81,0,0,0,0,9.3V21.034a8.81,8.81,0,0,0,8.8,8.8h.978v7.822a.978.978,0,0,0,1.669.691l8.514-8.514h2.529v.978a8.81,8.81,0,0,0,8.8,8.8h5.462L47.221,50.081a.978.978,0,0,0,1.669-.691V39.612h.978a8.81,8.81,0,0,0,8.8-8.8V19.078a8.81,8.81,0,0,0-8.8-8.8Zm-30.312,17.6a.978.978,0,0,0-.691.286L11.734,35.3v-6.44a.978.978,0,0,0-.978-.978H8.8a6.852,6.852,0,0,1-6.845-6.845V9.3A6.852,6.852,0,0,1,8.8,2.456H27.378A6.852,6.852,0,0,1,34.223,9.3v.978H31.29a8.81,8.81,0,0,0-8.8,8.8v8.8Zm37.156,2.933a6.852,6.852,0,0,1-6.845,6.845H47.912a.978.978,0,0,0-.978.978v8.4l-9.087-9.087a.978.978,0,0,0-.691-.286H31.29a6.852,6.852,0,0,1-6.845-6.845V19.078a6.852,6.852,0,0,1,6.845-6.845H49.868a6.852,6.852,0,0,1,6.845,6.845Zm0,0" fill="#fff"/>
    <path id="Path_3" data-name="Path 3" d="M255.467,144.5H232.978a.978.978,0,1,0,0,1.956h22.489a.978.978,0,0,0,0-1.956Zm0,0" transform="translate(-203.644 -126.4)" fill="#fff"/>
    <path id="Path_4" data-name="Path 4" d="M255.467,192.5H232.978a.978.978,0,1,0,0,1.956h22.489a.978.978,0,0,0,0-1.956Zm0,0" transform="translate(-203.644 -168.533)" fill="#fff"/>
    <path id="Path_5" data-name="Path 5" d="M255.467,240.5H232.978a.978.978,0,1,0,0,1.956h22.489a.978.978,0,0,0,0-1.956Zm0,0" transform="translate(-203.644 -210.666)" fill="#fff"/>
    <path id="Path_6" data-name="Path 6" d="M40.978,66.456H61.512a.978.978,0,1,0,0-1.956H40.978a.978.978,0,1,0,0,1.956Zm0,0" transform="translate(-35.111 -56.178)" fill="#fff"/>
    <path id="Path_7" data-name="Path 7" d="M55.645,112.5H40.978a.978.978,0,1,0,0,1.956H55.645a.978.978,0,1,0,0-1.956Zm0,0" transform="translate(-35.111 -98.311)" fill="#fff"/>
    <path id="Path_8" data-name="Path 8" d="M54.667,160.5H40.978a.978.978,0,1,0,0,1.956H54.667a.978.978,0,1,0,0-1.956Zm0,0" transform="translate(-35.111 -140.444)" fill="#fff"/>
  </g>
</svg>
