<svg xmlns="http://www.w3.org/2000/svg" width="49.294" height="49.294" viewBox="0 0 49.294 49.294">
  <g id="Hosting_service" data-name="Hosting service" transform="translate(1.172 -3.252)">
    <path id="Path_9" data-name="Path 9" d="M48.829,11.859a2.465,2.465,0,0,0,2.465-2.465V4.465A2.465,2.465,0,0,0,48.829,2H22.539a2.465,2.465,0,0,0-2.465,2.465V9.394a2.465,2.465,0,0,0,2.465,2.465h.822V13.5h-.822a2.465,2.465,0,0,0-2.465,2.465V20.9a2.465,2.465,0,0,0,2.465,2.465h.822V25h-.822a2.465,2.465,0,0,0-2.465,2.465V32.4a2.465,2.465,0,0,0,2.465,2.465h.822v1.055a5.751,5.751,0,0,0-2.259.1L16.788,37.1V35.684a.822.822,0,0,0-.822-.822H9.394a.822.822,0,0,0-.822.822v.822H2.822A.822.822,0,0,0,2,37.328v11.5a.822.822,0,0,0,.822.822H8.573v.822a.822.822,0,0,0,.822.822h6.573a.822.822,0,0,0,.822-.822V49.337l1.057.528a5.774,5.774,0,0,0,2.572.607h12.3A5.76,5.76,0,0,0,35.6,49.7l13.8-7.969a3.286,3.286,0,0,0-1.391-6.113v-.757h.822A2.465,2.465,0,0,0,51.294,32.4V27.469A2.465,2.465,0,0,0,48.829,25h-.822V23.361h.822A2.465,2.465,0,0,0,51.294,20.9V15.967A2.465,2.465,0,0,0,48.829,13.5h-.822V11.859ZM3.643,48.008V38.149H8.573v9.859Zm11.5,1.643H10.216V36.506h4.929ZM49.17,38.067a1.65,1.65,0,0,1-.595,2.247l-13.8,7.969a4.108,4.108,0,0,1-2.054.55h-12.3a4.138,4.138,0,0,1-1.838-.434l-1.791-.9V38.792L21.5,37.613a4.115,4.115,0,0,1,2.06.017l12.258,3.286a1.643,1.643,0,1,1-.85,3.174l-9.8-2.628a.822.822,0,1,0-.425,1.587l9.8,2.629a3.322,3.322,0,0,0,.856.113,3.247,3.247,0,0,0,3.258-3.547l8.275-4.777A1.672,1.672,0,0,1,49.17,38.067ZM25.713,36.506,25,36.316V34.863H46.365v1.052c-.082.04-.172.078-.255.126l-.806.465Zm16.745,1.643L38.1,40.666a3.257,3.257,0,0,0-1.856-1.338l-4.4-1.178Zm6.371-11.5a.822.822,0,0,1,.822.822V32.4a.822.822,0,0,1-.822.822H22.539a.822.822,0,0,1-.822-.822V27.469a.822.822,0,0,1,.822-.822ZM25,25V23.361H46.365V25Zm23.826-9.859a.822.822,0,0,1,.822.822V20.9a.822.822,0,0,1-.822.822H22.539a.822.822,0,0,1-.822-.822V15.967a.822.822,0,0,1,.822-.822ZM25,13.5V11.859H46.365V13.5Zm-2.465-3.286a.822.822,0,0,1-.822-.822V4.465a.822.822,0,0,1,.822-.822h26.29a.822.822,0,0,1,.822.822V9.394a.822.822,0,0,1-.822.822Z" transform="translate(-3.172 1.252)" fill="#fff"/>
  </g>
</svg>
