<svg xmlns="http://www.w3.org/2000/svg" width="34" height="55" viewBox="0 0 34 55">
  <g id="smartphone" transform="translate(-98.103)">
    <path id="Path_28" data-name="Path 28" d="M211.706,26.528a.8.8,0,0,0,.8.8h5.347a.8.8,0,0,0,0-1.6H212.5A.8.8,0,0,0,211.706,26.528Z" transform="translate(-101.337 -22.991)" fill="#fff"/>
    <path id="Path_29" data-name="Path 29" d="M226.163,444.35a2.456,2.456,0,1,0-2.455,2.455A2.458,2.458,0,0,0,226.163,444.35Zm-3.314,0a.859.859,0,1,1,.859.859A.86.86,0,0,1,222.849,444.35Z" transform="translate(-109.865 -394.358)" fill="#fff"/>
    <path id="Path_30" data-name="Path 30" d="M271.466,88.019h10.062a.8.8,0,0,0,0-1.6H271.466a.8.8,0,1,0,0,1.6Z" transform="translate(-153.814 -77.221)" fill="#fff"/>
    <path id="Path_31" data-name="Path 31" d="M271.466,117.619h10.062a.8.8,0,0,0,0-1.6H271.466a.8.8,0,1,0,0,1.6Z" transform="translate(-153.814 -103.555)" fill="#fff"/>
    <path id="Path_32" data-name="Path 32" d="M282.327,146.421a.8.8,0,0,0-.8-.8H271.466a.8.8,0,1,0,0,1.6h10.062A.8.8,0,0,0,282.327,146.421Z" transform="translate(-153.814 -129.976)" fill="#fff"/>
    <path id="Path_33" data-name="Path 33" d="M112.032,0h-9.451A4.478,4.478,0,0,0,98.1,4.468V50.532A4.478,4.478,0,0,0,102.581,55h22.528a4.478,4.478,0,0,0,4.478-4.468V20.908a3.053,3.053,0,0,0,2.516-3V8.6a3.052,3.052,0,0,0-2.516-3V4.468A4.478,4.478,0,0,0,125.109,0H115.8a.806.806,0,1,0,0,1.611h9.309a2.863,2.863,0,0,1,2.863,2.857V5.553H102.581a1.133,1.133,0,0,0-1.133,1.131V45.624a1.134,1.134,0,0,0,1.133,1.131h22.528a1.133,1.133,0,0,0,1.133-1.131V34.712a.807.807,0,0,0-1.615,0V45.143H103.062v-33.8h10.046V17.91c0,.079,0,.156.01.233a8.894,8.894,0,1,0,7.261,2.813h3.83c-.088.161-.026.058-1.3,2.062a1.194,1.194,0,0,0,1.5,1.728l.221-.1v6.306a.807.807,0,0,0,1.615,0V23.9a6.769,6.769,0,0,0,1.73-1.334V50.532a2.863,2.863,0,0,1-2.863,2.857H102.581a2.863,2.863,0,0,1-2.863-2.857V4.468a2.863,2.863,0,0,1,2.863-2.857h9.451a.806.806,0,1,0,0-1.611Zm-6.385,9.734h-2.584V7.165h2.584ZM113.108,8.6V9.734h-5.847V7.165h6.207a3.061,3.061,0,0,0-.36,1.435Zm5.109,24.223a7.293,7.293,0,0,1-8.745,0v-1.9a1.785,1.785,0,0,1,1.785-1.781h5.176a1.785,1.785,0,0,1,1.785,1.781Zm-6.528-7.439a2.155,2.155,0,1,1,2.155,2.15A2.155,2.155,0,0,1,111.69,25.384ZM121.14,27a7.223,7.223,0,0,1-1.307,4.15v-.225a3.4,3.4,0,0,0-2.921-3.358,3.77,3.77,0,1,0-6.132,0,3.4,3.4,0,0,0-2.921,3.358v.225a7.269,7.269,0,0,1,5.853-11.427,3.06,3.06,0,0,0,2.451,1.232h1.745A7.237,7.237,0,0,1,121.14,27Zm6.509-6.781a5.142,5.142,0,0,1-2.627,2.483,8.335,8.335,0,0,0,.954-1.734,1.2,1.2,0,0,0-1.126-1.624h-8.689a1.448,1.448,0,0,1-1.438-1.435V8.6a1.438,1.438,0,0,1,1.438-1.435H129.05A1.438,1.438,0,0,1,130.488,8.6v9.31a1.438,1.438,0,0,1-1.438,1.435A1.572,1.572,0,0,0,127.649,20.219Z" transform="translate(0)" fill="#fff"/>
  </g>
</svg>
